<svg xmlns="http://www.w3.org/2000/svg" viewBox="0 0 240 240" width="240" height="240"><defs><filter id="elephant-sh" x="-20%" y="-20%" width="140%" height="145%"><feDropShadow dx="0" dy="5" stdDeviation="5" flood-color="#3b2614" flood-opacity=".26"/></filter><radialGradient id="elephant-bg" cx=".5" cy=".36" r=".72"><stop offset="0" stop-color="#fff7ec"/><stop offset="1" stop-color="#ffd9b3"/></radialGradient><clipPath id="elephant-c"><circle cx="120" cy="120" r="95"/></clipPath><linearGradient id="elephant-g0" x1="0" y1="0" x2="0" y2="1"><stop offset="0" stop-color="#bfcfe0"/><stop offset="1" stop-color="#8ea3ba"/></linearGradient></defs><circle cx="120" cy="120" r="104" fill="#fff" filter="url(#elephant-sh)"/><circle cx="120" cy="120" r="95" fill="url(#elephant-bg)"/><g stroke-linejoin="round" stroke-linecap="round"><g transform="translate(120 120) scale(0.9) translate(-120 -120)"><path d="M84 94C54 68 26 96 32 132C38 166 70 170 90 150Z" fill="url(#elephant-g0)" stroke="#5f738a" stroke-width="3"/><path d="M78 102C58 88 42 106 46 130C50 152 70 154 82 142Z" fill="#f5c2cf"/><g transform="matrix(-1 0 0 1 240 0)"><path d="M84 94C54 68 26 96 32 132C38 166 70 170 90 150Z" fill="url(#elephant-g0)" stroke="#5f738a" stroke-width="3"/><path d="M78 102C58 88 42 106 46 130C50 152 70 154 82 142Z" fill="#f5c2cf"/></g><path d="M108 144C104 170 112 192 134 192C150 192 156 178 148 170C142 174 134 174 132 168C128 160 134 150 134 142Z" fill="url(#elephant-g0)" stroke="#5f738a" stroke-width="3"/><path d="M110 158h22M111 170h20M118 182h14" fill="none" stroke="#7d91a8" stroke-width="2"/><ellipse cx="120" cy="114" rx="46" ry="44" fill="url(#elephant-g0)" stroke="#5f738a" stroke-width="3"/><path d="M106 156C106 146 134 146 134 156" fill="url(#elephant-g0)"/><path d="M114 72Q118 62 124 70Q128 62 132 72" fill="none" stroke="#5f738a" stroke-width="2.5"/><ellipse cx="101.1" cy="112" rx="4.4" ry="5.5" fill="#3a2a22"/><ellipse cx="138.9" cy="112" rx="4.4" ry="5.5" fill="#3a2a22"/><circle cx="102.6" cy="110" r="1.7" fill="#fff"/><circle cx="140.4" cy="110" r="1.7" fill="#fff"/><ellipse cx="90" cy="130" rx="5" ry="3.2" fill="#ff7b7b" opacity=".42"/><ellipse cx="150" cy="130" rx="5" ry="3.2" fill="#ff7b7b" opacity=".42"/><ellipse cx="102" cy="88" rx="12" ry="6" fill="#fff" opacity=".4" transform="rotate(-30 102 88)"/></g></g><circle cx="120" cy="120" r="95" fill="none" stroke="#000" stroke-opacity=".07" stroke-width="2"/><path d="M48 86A78 78 0 0 1 96 40" fill="none" stroke="#fff" stroke-opacity=".5" stroke-width="5" stroke-linecap="round"/></svg>