<svg xmlns="http://www.w3.org/2000/svg" viewBox="0 0 240 240" width="240" height="240"><defs><filter id="menorah-sh" x="-20%" y="-20%" width="140%" height="145%"><feDropShadow dx="0" dy="5" stdDeviation="5" flood-color="#3b2614" flood-opacity=".26"/></filter><radialGradient id="menorah-bg" cx=".5" cy=".36" r=".72"><stop offset="0" stop-color="#f1f7ff"/><stop offset="1" stop-color="#c9ddf5"/></radialGradient><clipPath id="menorah-c"><circle cx="120" cy="120" r="110.5"/></clipPath><linearGradient id="menorah-g0" x1="0" y1="0" x2="1" y2="0"><stop offset="0" stop-color="#d99a1e"/><stop offset=".38" stop-color="#fff0a8"/><stop offset="1" stop-color="#c0820f"/></linearGradient><linearGradient id="menorah-g1" x1="0" y1="0" x2="0" y2="1"><stop offset="0" stop-color="#ffe28a"/><stop offset="1" stop-color="#d99a1e"/></linearGradient><radialGradient id="menorah-g2" cx="0.5" cy="0.7" r="0.7"><stop offset="0" stop-color="#fffbe0"/><stop offset="1" stop-color="#ff9a2e"/></radialGradient><radialGradient id="menorah-g3"><stop offset="0" stop-color="#ffd76a" stop-opacity="0.6"/><stop offset="1" stop-color="#ffd76a" stop-opacity="0"/></radialGradient></defs><circle cx="120" cy="120" r="104" fill="#fff" filter="url(#menorah-sh)"/><circle cx="120" cy="120" r="95" fill="url(#menorah-bg)"/><g stroke-linejoin="round" stroke-linecap="round"><g transform="translate(120 120) scale(0.9) translate(-120 -120)"><g fill="none" stroke="#a8701a" stroke-width="10"><path d="M44 130A76 41.8 0 0 0 196 130"/><path d="M63 130A57 31.4 0 0 0 177 130"/><path d="M82 130A38 20.9 0 0 0 158 130"/><path d="M101 130A19 10.5 0 0 0 139 130"/></g><g fill="none" stroke="url(#menorah-g1)" stroke-width="5"><path d="M44 130A76 41.8 0 0 0 196 130"/><path d="M63 130A57 31.4 0 0 0 177 130"/><path d="M82 130A38 20.9 0 0 0 158 130"/><path d="M101 130A19 10.5 0 0 0 139 130"/></g><rect x="114" y="112" width="12" height="70" fill="url(#menorah-g0)" stroke="#a8701a" stroke-width="2.5"/><path d="M84 196Q86 180 112 176L128 176Q154 180 156 196Z" fill="url(#menorah-g0)" stroke="#a8701a" stroke-width="2.5"/><ellipse cx="120" cy="160" rx="10" ry="6" fill="url(#menorah-g1)" stroke="#a8701a" stroke-width="2.5"/><circle cx="44" cy="90" r="14" fill="url(#menorah-g3)"/><rect x="39.5" y="104" width="9" height="24" rx="2" fill="#ffffff" stroke="#7a94c8" stroke-width="1.8"/><path d="M35 127L53 127L50 133L38 133Z" fill="url(#menorah-g1)" stroke="#a8701a" stroke-width="2"/><path d="M44 84C49 91 50 97 44 101C38 97 39 91 44 84Z" fill="url(#menorah-g2)" stroke="#f08a24" stroke-width="1.2"/><circle cx="63" cy="90" r="14" fill="url(#menorah-g3)"/><rect x="58.5" y="104" width="9" height="24" rx="2" fill="#8fb8ff" stroke="#7a94c8" stroke-width="1.8"/><path d="M54 127L72 127L69 133L57 133Z" fill="url(#menorah-g1)" stroke="#a8701a" stroke-width="2"/><path d="M63 84C68 91 69 97 63 101C57 97 58 91 63 84Z" fill="url(#menorah-g2)" stroke="#f08a24" stroke-width="1.2"/><circle cx="82" cy="90" r="14" fill="url(#menorah-g3)"/><rect x="77.5" y="104" width="9" height="24" rx="2" fill="#ffffff" stroke="#7a94c8" stroke-width="1.8"/><path d="M73 127L91 127L88 133L76 133Z" fill="url(#menorah-g1)" stroke="#a8701a" stroke-width="2"/><path d="M82 84C87 91 88 97 82 101C76 97 77 91 82 84Z" fill="url(#menorah-g2)" stroke="#f08a24" stroke-width="1.2"/><circle cx="101" cy="90" r="14" fill="url(#menorah-g3)"/><rect x="96.5" y="104" width="9" height="24" rx="2" fill="#8fb8ff" stroke="#7a94c8" stroke-width="1.8"/><path d="M92 127L110 127L107 133L95 133Z" fill="url(#menorah-g1)" stroke="#a8701a" stroke-width="2"/><path d="M101 84C106 91 107 97 101 101C95 97 96 91 101 84Z" fill="url(#menorah-g2)" stroke="#f08a24" stroke-width="1.2"/><circle cx="120" cy="72" r="14" fill="url(#menorah-g3)"/><rect x="115.5" y="86" width="9" height="24" rx="2" fill="#ffffff" stroke="#7a94c8" stroke-width="1.8"/><path d="M111 109L129 109L126 115L114 115Z" fill="url(#menorah-g1)" stroke="#a8701a" stroke-width="2"/><path d="M120 66C125 73 126 79 120 83C114 79 115 73 120 66Z" fill="url(#menorah-g2)" stroke="#f08a24" stroke-width="1.2"/><circle cx="139" cy="90" r="14" fill="url(#menorah-g3)"/><rect x="134.5" y="104" width="9" height="24" rx="2" fill="#8fb8ff" stroke="#7a94c8" stroke-width="1.8"/><path d="M130 127L148 127L145 133L133 133Z" fill="url(#menorah-g1)" stroke="#a8701a" stroke-width="2"/><path d="M139 84C144 91 145 97 139 101C133 97 134 91 139 84Z" fill="url(#menorah-g2)" stroke="#f08a24" stroke-width="1.2"/><circle cx="158" cy="90" r="14" fill="url(#menorah-g3)"/><rect x="153.5" y="104" width="9" height="24" rx="2" fill="#ffffff" stroke="#7a94c8" stroke-width="1.8"/><path d="M149 127L167 127L164 133L152 133Z" fill="url(#menorah-g1)" stroke="#a8701a" stroke-width="2"/><path d="M158 84C163 91 164 97 158 101C152 97 153 91 158 84Z" fill="url(#menorah-g2)" stroke="#f08a24" stroke-width="1.2"/><circle cx="177" cy="90" r="14" fill="url(#menorah-g3)"/><rect x="172.5" y="104" width="9" height="24" rx="2" fill="#8fb8ff" stroke="#7a94c8" stroke-width="1.8"/><path d="M168 127L186 127L183 133L171 133Z" fill="url(#menorah-g1)" stroke="#a8701a" stroke-width="2"/><path d="M177 84C182 91 183 97 177 101C171 97 172 91 177 84Z" fill="url(#menorah-g2)" stroke="#f08a24" stroke-width="1.2"/><circle cx="196" cy="90" r="14" fill="url(#menorah-g3)"/><rect x="191.5" y="104" width="9" height="24" rx="2" fill="#ffffff" stroke="#7a94c8" stroke-width="1.8"/><path d="M187 127L205 127L202 133L190 133Z" fill="url(#menorah-g1)" stroke="#a8701a" stroke-width="2"/><path d="M196 84C201 91 202 97 196 101C190 97 191 91 196 84Z" fill="url(#menorah-g2)" stroke="#f08a24" stroke-width="1.2"/><path d="M110 186Q120 182 130 186" stroke="#fff" stroke-width="2" opacity=".6" fill="none"/></g></g><circle cx="120" cy="120" r="95" fill="none" stroke="#000" stroke-opacity=".07" stroke-width="2"/><path d="M48 86A78 78 0 0 1 96 40" fill="none" stroke="#fff" stroke-opacity=".5" stroke-width="5" stroke-linecap="round"/></svg>