<svg xmlns="http://www.w3.org/2000/svg" viewBox="0 0 240 240" width="240" height="240"><defs><filter id="mountain-sunrise-sh" x="-20%" y="-20%" width="140%" height="145%"><feDropShadow dx="0" dy="5" stdDeviation="5" flood-color="#3b2614" flood-opacity=".26"/></filter><radialGradient id="mountain-sunrise-bg" cx=".5" cy=".36" r=".72"><stop offset="0" stop-color="#fff6e6"/><stop offset="1" stop-color="#ffcfa6"/></radialGradient><clipPath id="mountain-sunrise-c"><circle cx="120" cy="120" r="95"/></clipPath><radialGradient id="mountain-sunrise-g0"><stop offset="0" stop-color="#fff1a8" stop-opacity="0.9"/><stop offset="1" stop-color="#fff1a8" stop-opacity="0"/></radialGradient><radialGradient id="mountain-sunrise-g1" cx="0.4" cy="0.3" r="0.8"><stop offset="0" stop-color="#fff6b0"/><stop offset="1" stop-color="#ffb42e"/></radialGradient><linearGradient id="mountain-sunrise-g2" x1="0" y1="0" x2="0" y2="1"><stop offset="0" stop-color="#c5b5ee"/><stop offset="1" stop-color="#9484d0"/></linearGradient><linearGradient id="mountain-sunrise-g3" x1="0" y1="0" x2="0" y2="1"><stop offset="0" stop-color="#8296da"/><stop offset="1" stop-color="#4e60aa"/></linearGradient><linearGradient id="mountain-sunrise-g4" x1="0" y1="0" x2="0" y2="1"><stop offset="0" stop-color="#9be07e"/><stop offset="1" stop-color="#4caa4a"/></linearGradient></defs><circle cx="120" cy="120" r="104" fill="#fff" filter="url(#mountain-sunrise-sh)"/><circle cx="120" cy="120" r="95" fill="url(#mountain-sunrise-bg)"/><g stroke-linejoin="round" stroke-linecap="round"><g clip-path="url(#mountain-sunrise-c)"><circle cx="160" cy="120" r="56" fill="url(#mountain-sunrise-g0)"/><circle cx="160" cy="122" r="30" fill="url(#mountain-sunrise-g1)" stroke="#f08a24" stroke-width="3"/><path d="M0 156L44 116L80 142L118 104L170 150L206 120L240 148V240H0Z" fill="url(#mountain-sunrise-g2)" stroke="#7666b8" stroke-width="2.5"/><path d="M28 204Q22 204 25.3 199L100.7 87Q104 82 107.5 86.9L186.5 199.1Q190 204 184 204Z" fill="url(#mountain-sunrise-g3)" stroke="#3a4a8e" stroke-width="3"/><path d="M104 82L84 112L94 108L102 118L112 106L122 112Z" fill="#fff" stroke="#3a4a8e" stroke-width="2.5"/><path d="M104 86L118 108" fill="none" stroke="#fff" stroke-width="2" opacity=".5"/><path d="M0 194Q70 168 140 190Q196 176 240 186V240H0Z" fill="url(#mountain-sunrise-g4)"/><path d="M140 64q6 -6 12 0q6 -6 12 0M170 80q4 -4 8 0q4 -4 8 0" fill="none" stroke="#7a4a3a" stroke-width="2.5"/><g fill="#3f9a48"><path d="M50 200l8 -22l8 22z"/><path d="M64 204l7 -18l7 18z"/><path d="M174 196l8 -22l8 22z"/></g></g></g><circle cx="120" cy="120" r="95" fill="none" stroke="#000" stroke-opacity=".07" stroke-width="2"/><path d="M48 86A78 78 0 0 1 96 40" fill="none" stroke="#fff" stroke-opacity=".5" stroke-width="5" stroke-linecap="round"/></svg>