<svg xmlns="http://www.w3.org/2000/svg" viewBox="0 0 240 240" width="240" height="240"><defs><filter id="oak-tree-sh" x="-20%" y="-20%" width="140%" height="145%"><feDropShadow dx="0" dy="5" stdDeviation="5" flood-color="#3b2614" flood-opacity=".26"/></filter><radialGradient id="oak-tree-bg" cx=".5" cy=".36" r=".72"><stop offset="0" stop-color="#f4fcee"/><stop offset="1" stop-color="#cdeebf"/></radialGradient><clipPath id="oak-tree-c"><circle cx="120" cy="120" r="95"/></clipPath><linearGradient id="oak-tree-g0" x1="0" y1="0" x2="0" y2="1"><stop offset="0" stop-color="#9be07e"/><stop offset="1" stop-color="#4caa4a"/></linearGradient><linearGradient id="oak-tree-g1" x1="0" y1="0" x2="1" y2="0"><stop offset="0" stop-color="#b07840"/><stop offset="1" stop-color="#7a4a24"/></linearGradient><linearGradient id="oak-tree-g2" x1="0" y1="0" x2="0" y2="1"><stop offset="0" stop-color="#94d86c"/><stop offset="1" stop-color="#3f9a3a"/></linearGradient></defs><circle cx="120" cy="120" r="104" fill="#fff" filter="url(#oak-tree-sh)"/><circle cx="120" cy="120" r="95" fill="url(#oak-tree-bg)"/><g stroke-linejoin="round" stroke-linecap="round"><g clip-path="url(#oak-tree-c)"><path d="M0 188Q120 160 240 188V240H0Z" fill="url(#oak-tree-g0)"/></g><path d="M108 190C112 166 112 146 104 124L136 124C128 146 128 166 132 190Q144 194 150 198L90 198Q96 194 108 190Z" fill="url(#oak-tree-g1)" stroke="#5a3418" stroke-width="3"/><path d="M118 150Q120 166 116 182M126 136q2 10 0 16" fill="none" stroke="#5a3418" stroke-width="2" opacity=".5"/><g fill="url(#oak-tree-g2)" stroke="#2e7a32" stroke-width="6"><circle cx="120" cy="74" r="36"/><circle cx="84" cy="96" r="30"/><circle cx="156" cy="96" r="30"/><circle cx="100" cy="62" r="24"/><circle cx="142" cy="62" r="24"/><circle cx="100" cy="118" r="26"/><circle cx="140" cy="118" r="26"/><circle cx="120" cy="102" r="34"/><circle cx="68" cy="120" r="20"/><circle cx="172" cy="120" r="20"/></g><g fill="url(#oak-tree-g2)"><circle cx="120" cy="74" r="36"/><circle cx="84" cy="96" r="30"/><circle cx="156" cy="96" r="30"/><circle cx="100" cy="62" r="24"/><circle cx="142" cy="62" r="24"/><circle cx="100" cy="118" r="26"/><circle cx="140" cy="118" r="26"/><circle cx="120" cy="102" r="34"/><circle cx="68" cy="120" r="20"/><circle cx="172" cy="120" r="20"/></g><g fill="#fff" opacity=".22"><circle cx="108" cy="62" r="14"/><circle cx="78" cy="92" r="11"/><circle cx="146" cy="80" r="10"/></g><ellipse cx="88" cy="124" rx="5.5" ry="7" fill="#d79a52" stroke="#8a5a2a" stroke-width="1.8"/><path d="M81 120Q88 112 95 120Z" fill="#7a4a24" stroke="#5a3418" stroke-width="1.8"/><path d="M88 116v-4" stroke="#5a3418" stroke-width="2"/><ellipse cx="152" cy="130" rx="5.5" ry="7" fill="#d79a52" stroke="#8a5a2a" stroke-width="1.8"/><path d="M145 126Q152 118 159 126Z" fill="#7a4a24" stroke="#5a3418" stroke-width="1.8"/><path d="M152 122v-4" stroke="#5a3418" stroke-width="2"/><ellipse cx="126" cy="98" rx="5.5" ry="7" fill="#d79a52" stroke="#8a5a2a" stroke-width="1.8"/><path d="M119 94Q126 86 133 94Z" fill="#7a4a24" stroke="#5a3418" stroke-width="1.8"/><path d="M126 90v-4" stroke="#5a3418" stroke-width="2"/><ellipse cx="98" cy="86" rx="5.5" ry="7" fill="#d79a52" stroke="#8a5a2a" stroke-width="1.8"/><path d="M91 82Q98 74 105 82Z" fill="#7a4a24" stroke="#5a3418" stroke-width="1.8"/><path d="M98 78v-4" stroke="#5a3418" stroke-width="2"/><circle cx="70" cy="192" r="3.2" fill="#fff"/><circle cx="160" cy="194" r="3.2" fill="#ffd43b"/><circle cx="172" cy="200" r="3.2" fill="#fff"/></g><circle cx="120" cy="120" r="95" fill="none" stroke="#000" stroke-opacity=".07" stroke-width="2"/><path d="M48 86A78 78 0 0 1 96 40" fill="none" stroke="#fff" stroke-opacity=".5" stroke-width="5" stroke-linecap="round"/></svg>