<svg xmlns="http://www.w3.org/2000/svg" viewBox="0 0 240 240" width="240" height="240"><defs><filter id="torah-scroll-sh" x="-20%" y="-20%" width="140%" height="145%"><feDropShadow dx="0" dy="5" stdDeviation="5" flood-color="#3b2614" flood-opacity=".26"/></filter><radialGradient id="torah-scroll-bg" cx=".5" cy=".36" r=".72"><stop offset="0" stop-color="#f1f7ff"/><stop offset="1" stop-color="#c9ddf5"/></radialGradient><clipPath id="torah-scroll-c"><circle cx="120" cy="120" r="111.8"/></clipPath><linearGradient id="torah-scroll-g0" x1="0" y1="0" x2="1" y2="0"><stop offset="0" stop-color="#e9d3a2"/><stop offset=".38" stop-color="#fff8e4"/><stop offset="1" stop-color="#d9bd84"/></linearGradient><linearGradient id="torah-scroll-g1" x1="0" y1="0" x2="1" y2="0"><stop offset="0" stop-color="#a8703c"/><stop offset="1" stop-color="#6e4020"/></linearGradient><linearGradient id="torah-scroll-g2" x1="0" y1="0" x2="1" y2="0"><stop offset="0" stop-color="#9aa6b8"/><stop offset=".38" stop-color="#ffffff"/><stop offset="1" stop-color="#6f7c92"/></linearGradient><linearGradient id="torah-scroll-g3" x1="0" y1="0" x2="0" y2="1"><stop offset="0" stop-color="#fffaea"/><stop offset="1" stop-color="#f4e4c0"/></linearGradient></defs><circle cx="120" cy="120" r="104" fill="#fff" filter="url(#torah-scroll-sh)"/><circle cx="120" cy="120" r="95" fill="url(#torah-scroll-bg)"/><g stroke-linejoin="round" stroke-linecap="round"><g transform="translate(120 120) scale(0.8) translate(-120 -120)"><ellipse cx="120" cy="196" rx="70" ry="6" fill="#2a3a5a" opacity=".12"/><rect x="88" y="74" width="64" height="96" fill="url(#torah-scroll-g3)" stroke="#b08d52" stroke-width="2.5"/><path d="M96 84H116" stroke="#7a6a5a" stroke-width="2.4" opacity=".55"/><path d="M99 91.5H116" stroke="#7a6a5a" stroke-width="2.4" opacity=".55"/><path d="M98 99H116" stroke="#7a6a5a" stroke-width="2.4" opacity=".55"/><path d="M97 106.5H116" stroke="#7a6a5a" stroke-width="2.4" opacity=".55"/><path d="M96 114H116" stroke="#7a6a5a" stroke-width="2.4" opacity=".55"/><path d="M99 121.5H116" stroke="#7a6a5a" stroke-width="2.4" opacity=".55"/><path d="M98 129H116" stroke="#7a6a5a" stroke-width="2.4" opacity=".55"/><path d="M97 136.5H116" stroke="#7a6a5a" stroke-width="2.4" opacity=".55"/><path d="M96 144H116" stroke="#7a6a5a" stroke-width="2.4" opacity=".55"/><path d="M99 151.5H116" stroke="#7a6a5a" stroke-width="2.4" opacity=".55"/><path d="M104 159H116" stroke="#7a6a5a" stroke-width="2.4" opacity=".55"/><path d="M127 84H144" stroke="#7a6a5a" stroke-width="2.4" opacity=".55"/><path d="M126 91.5H144" stroke="#7a6a5a" stroke-width="2.4" opacity=".55"/><path d="M125 99H144" stroke="#7a6a5a" stroke-width="2.4" opacity=".55"/><path d="M124 106.5H144" stroke="#7a6a5a" stroke-width="2.4" opacity=".55"/><path d="M127 114H144" stroke="#7a6a5a" stroke-width="2.4" opacity=".55"/><path d="M126 121.5H144" stroke="#7a6a5a" stroke-width="2.4" opacity=".55"/><path d="M125 129H144" stroke="#7a6a5a" stroke-width="2.4" opacity=".55"/><path d="M124 136.5H144" stroke="#7a6a5a" stroke-width="2.4" opacity=".55"/><path d="M127 144H144" stroke="#7a6a5a" stroke-width="2.4" opacity=".55"/><path d="M126 151.5H144" stroke="#7a6a5a" stroke-width="2.4" opacity=".55"/><path d="M132 159H144" stroke="#7a6a5a" stroke-width="2.4" opacity=".55"/><rect x="67.5" y="40" width="9" height="24" rx="3" fill="url(#torah-scroll-g1)" stroke="#4a2a12" stroke-width="2"/><path d="M64 46Q72 26 80 46Z" fill="url(#torah-scroll-g2)" stroke="#56627a" stroke-width="2"/><circle cx="72" cy="30" r="3" fill="#ffd34d" stroke="#c78a1f" stroke-width="1.2"/><rect x="52" y="62" width="40" height="10" rx="5" fill="url(#torah-scroll-g1)" stroke="#4a2a12" stroke-width="2.5"/><rect x="55" y="70" width="34" height="104" rx="15" fill="url(#torah-scroll-g0)" stroke="#b08d52" stroke-width="2.5"/><path d="M64 78V166" stroke="#fff" stroke-width="3" opacity=".6"/><rect x="52" y="172" width="40" height="10" rx="5" fill="url(#torah-scroll-g1)" stroke="#4a2a12" stroke-width="2.5"/><rect x="67.5" y="180" width="9" height="18" rx="3" fill="url(#torah-scroll-g1)" stroke="#4a2a12" stroke-width="2"/><rect x="163.5" y="40" width="9" height="24" rx="3" fill="url(#torah-scroll-g1)" stroke="#4a2a12" stroke-width="2"/><path d="M160 46Q168 26 176 46Z" fill="url(#torah-scroll-g2)" stroke="#56627a" stroke-width="2"/><circle cx="168" cy="30" r="3" fill="#ffd34d" stroke="#c78a1f" stroke-width="1.2"/><rect x="148" y="62" width="40" height="10" rx="5" fill="url(#torah-scroll-g1)" stroke="#4a2a12" stroke-width="2.5"/><rect x="151" y="70" width="34" height="104" rx="15" fill="url(#torah-scroll-g0)" stroke="#b08d52" stroke-width="2.5"/><path d="M160 78V166" stroke="#fff" stroke-width="3" opacity=".6"/><rect x="148" y="172" width="40" height="10" rx="5" fill="url(#torah-scroll-g1)" stroke="#4a2a12" stroke-width="2.5"/><rect x="163.5" y="180" width="9" height="18" rx="3" fill="url(#torah-scroll-g1)" stroke="#4a2a12" stroke-width="2"/></g></g><circle cx="120" cy="120" r="95" fill="none" stroke="#000" stroke-opacity=".07" stroke-width="2"/><path d="M48 86A78 78 0 0 1 96 40" fill="none" stroke="#fff" stroke-opacity=".5" stroke-width="5" stroke-linecap="round"/></svg>