<svg xmlns="http://www.w3.org/2000/svg" viewBox="0 0 240 240" width="240" height="240"><defs><filter id="whale-sh" x="-20%" y="-20%" width="140%" height="145%"><feDropShadow dx="0" dy="5" stdDeviation="5" flood-color="#3b2614" flood-opacity=".26"/></filter><radialGradient id="whale-bg" cx=".5" cy=".36" r=".72"><stop offset="0" stop-color="#f5fbff"/><stop offset="1" stop-color="#b9def8"/></radialGradient><clipPath id="whale-c"><circle cx="120" cy="120" r="95"/></clipPath><linearGradient id="whale-g0" x1="0" y1="0" x2="0" y2="1"><stop offset="0" stop-color="#8fd3f7"/><stop offset="1" stop-color="#3a98d6"/></linearGradient><linearGradient id="whale-g1" x1="0" y1="0" x2="0" y2="1"><stop offset="0" stop-color="#74c6f2"/><stop offset="1" stop-color="#2f7fc8"/></linearGradient><clipPath id="whale-k2"><path d="M44 128C44 92 80 76 116 78C150 80 172 100 180 122C186 112 196 102 210 98C206 112 202 124 192 132C202 140 206 152 208 164C194 158 184 150 178 142C166 166 134 176 104 174C68 172 44 156 44 128Z"/></clipPath></defs><circle cx="120" cy="120" r="104" fill="#fff" filter="url(#whale-sh)"/><circle cx="120" cy="120" r="95" fill="url(#whale-bg)"/><g stroke-linejoin="round" stroke-linecap="round"><g clip-path="url(#whale-c)"><path d="M0 176Q30 166 60 176T120 176T180 176T240 176V240H0Z" fill="url(#whale-g0)"/><path d="M10 196q15 -8 30 0M150 204q15 -8 30 0M80 210q15 -8 30 0" fill="none" stroke="#fff" stroke-width="3" opacity=".6"/></g><g transform="translate(120 122) scale(.9) translate(-124 -120)"><path d="M110 72Q106 54 92 46M110 72Q114 52 128 44M110 72V46" fill="none" stroke="#9fdcff" stroke-width="6"/><circle cx="90" cy="42" r="5" fill="#bfe8ff"/><circle cx="130" cy="40" r="5" fill="#bfe8ff"/><circle cx="110" cy="38" r="5" fill="#bfe8ff"/><path d="M44 128C44 92 80 76 116 78C150 80 172 100 180 122C186 112 196 102 210 98C206 112 202 124 192 132C202 140 206 152 208 164C194 158 184 150 178 142C166 166 134 176 104 174C68 172 44 156 44 128Z" fill="url(#whale-g1)" stroke="#1f5c96" stroke-width="3"/><g clip-path="url(#whale-k2)"><ellipse cx="110" cy="174" rx="70" ry="28" fill="#e4f5ff"/><path d="M70 156q40 10 80 0M66 164q44 10 88 0" fill="none" stroke="#a9d4f0" stroke-width="2.5"/></g><path d="M44 128C44 92 80 76 116 78C150 80 172 100 180 122C186 112 196 102 210 98C206 112 202 124 192 132C202 140 206 152 208 164C194 158 184 150 178 142C166 166 134 176 104 174C68 172 44 156 44 128Z" fill="none" stroke="#1f5c96" stroke-width="3"/><path d="M112 148Q100 172 126 166Z" fill="#3f8fd2" stroke="#1f5c96" stroke-width="2.5"/><ellipse cx="78" cy="112" rx="4.6" ry="5.6" fill="#1d2b3a"/><circle cx="79.6" cy="110" r="1.7" fill="#fff"/><path d="M64 132Q78 142 94 130" fill="none" stroke="#1d2b3a" stroke-width="2.6"/><ellipse cx="96" cy="124" rx="6" ry="3.6" fill="#ff8a9a" opacity=".5"/><ellipse cx="100" cy="90" rx="16" ry="6" fill="#fff" opacity=".45" transform="rotate(-12 100 90)"/></g></g><circle cx="120" cy="120" r="95" fill="none" stroke="#000" stroke-opacity=".07" stroke-width="2"/><path d="M48 86A78 78 0 0 1 96 40" fill="none" stroke="#fff" stroke-opacity=".5" stroke-width="5" stroke-linecap="round"/></svg>